<svg xmlns="http://www.w3.org/2000/svg" viewBox="0 0 391.4 231.9"><title>Asset 1</title><g id="Layer_2" data-name="Layer 2"><g id="Layer_3" data-name="Layer 3"><path d="M175.4,138.2c-18.5-13.9-33.4-20.5-46.3-23.5a32,32,0,0,0-3.8-13.4c11.9-5.1,27.4-8.2,50.1-7.5C164.6,80,154.8,69.9,149,59.7c-16.1,9.3-27.9,18.9-36.7,28.7a28.8,28.8,0,0,0-13.4-3.6c1.5-12.8,6.5-27.6,18.5-47.1H78.3c-2.7,23.1-.9,39.2,3,51.8a30.8,30.8,0,0,0-10,10C61.1,92,50.7,81.6,40,66.8c-5.4,12-10.7,20-19.7,27,18.5,13.8,33.5,20.4,46.3,23.4a32.4,32.4,0,0,0,3.8,13.5c-11.9,5-27.4,8.1-50.1,7.5,10.9,13.8,20.6,23.9,26.4,34,16.1-9.3,27.9-18.9,36.7-28.6a30,30,0,0,0,13.4,3.5c-1.5,12.8-6.5,27.7-18.5,47.1h39.1c2.8-23.1,1-39.2-2.9-51.8a30.5,30.5,0,0,0,9.9-10c10.2,7.5,20.6,18,31.3,32.7C161.1,153.1,166.4,145.1,175.4,138.2ZM97.8,125.8a9.8,9.8,0,1,1,9.8-9.8A9.8,9.8,0,0,1,97.8,125.8Z" style="fill:#00a9d2"/><path d="M321,101.3c11.9-5.1,27.4-8.2,50.1-7.5C360.2,80,350.5,69.9,344.7,59.7,328.6,69,316.8,78.6,308,88.4a29.1,29.1,0,0,0-13.4-3.6c1.5-12.8,6.5-27.6,18.5-47.1H273.9c-2.7,23.1-.9,39.2,3,51.8a31.5,31.5,0,0,0-9.9,10c-10.3-7.5-20.6-17.9-31.4-32.7-5.3,12-10.6,20-19.6,27,18.5,13.8,33.4,20.4,46.3,23.4a30.9,30.9,0,0,0,3.7,13.5c-11.8,5-27.4,8.1-50,7.5,10.8,13.8,20.5,23.9,26.4,34,16-9.3,27.9-18.9,36.6-28.6a30.7,30.7,0,0,0,13.4,3.5c-1.5,12.8-6.5,27.7-18.5,47.1h39.2c2.7-23.1.9-39.2-3-51.8a30.8,30.8,0,0,0,10-10c10.2,7.5,20.6,18,31.3,32.7,5.4-12,10.7-20,19.7-26.9-18.6-13.9-33.5-20.5-46.4-23.5A30.1,30.1,0,0,0,321,101.3Zm-27.5,24.5a9.8,9.8,0,1,1,9.8-9.8A9.7,9.7,0,0,1,293.5,125.8Z" style="fill:#00a9d2"/><path d="M375.7,18.1H250S225.7,0,195.7,0s-54.4,18.1-54.4,18.1H15.7A15.7,15.7,0,0,0,0,33.8V198.2a15.6,15.6,0,0,0,15.7,15.6H141.3s24.4,18.1,54.4,18.1,54.4-18.1,54.4-18.1H375.7a15.7,15.7,0,0,0,15.7-15.6V33.8A15.8,15.8,0,0,0,375.7,18.1Zm-180-3.6c24,0,43.5,15.9,43.5,15.9s-19.5,15.8-43.5,15.8-43.5-15.8-43.5-15.8S171.7,14.5,195.7,14.5ZM13.7,26a5.9,5.9,0,1,1-5.9,5.8A5.9,5.9,0,0,1,13.7,26Zm0,180a5.9,5.9,0,1,1,5.8-5.9A5.8,5.8,0,0,1,13.7,206Zm84.1-3.9A86.1,86.1,0,1,1,183.9,116,86,86,0,0,1,97.8,202.1Zm97.9,15.3c-24,0-43.5-15.8-43.5-15.8s19.5-15.9,43.5-15.9,43.5,15.9,43.5,15.9S219.7,217.4,195.7,217.4Zm97.8-15.3A86.1,86.1,0,1,1,379.6,116,86.1,86.1,0,0,1,293.5,202.1Zm84.2,3.9a5.9,5.9,0,1,1,5.9-5.9A5.9,5.9,0,0,1,377.7,206Zm0-168.3a5.9,5.9,0,1,1,5.9-5.9A5.9,5.9,0,0,1,377.7,37.7Z" style="fill:#4d4d4d"/></g></g></svg>