<svg xmlns="http://www.w3.org/2000/svg" xmlns:xlink="http://www.w3.org/1999/xlink" viewBox="0 0 392 271.7"><defs><clipPath id="clip-path" transform="translate(0 -0.2)"><rect width="391.9" height="272.88" style="fill:none"/></clipPath></defs><title>Asset 1</title><g id="Layer_2" data-name="Layer 2"><g id="Layer_3" data-name="Layer 3"><g style="clip-path:url(#clip-path)"><path d="M346.9,75.1a143.6,143.6,0,0,0-32.4-35.7A48.2,48.2,0,0,0,267.1.2,47.7,47.7,0,0,0,238,10c-3.3-.3-6.7-.4-10.1-.4a141.3,141.3,0,0,0-118.7,65H69.9A70,70,0,0,0,0,144.5a40.9,40.9,0,0,0,40.9,40.9H60.1a38.7,38.7,0,0,0,76.2,0h71.6a63.9,63.9,0,0,0-4.3,23,63.6,63.6,0,0,0,63.5,63.5h3a63.5,63.5,0,0,0,59-77.3,40.9,40.9,0,0,0,2.8-9.2h19.2A40.9,40.9,0,0,0,392,144.5V126.6a52.1,52.1,0,0,0-45.1-51.5ZM239.8,237a39.6,39.6,0,0,1-.5-56.7,11.8,11.8,0,0,0,3.6-8.5V48.4a24.3,24.3,0,0,1,48.5,0V171.8a12.1,12.1,0,0,0,3.5,8.5,38.8,38.8,0,0,1,11.7,29.3A39.5,39.5,0,0,1,239.8,237ZM112.9,178.9a14.7,14.7,0,1,1-14.7-14.7,14.6,14.6,0,0,1,14.7,14.7ZM98.2,140.2a38.6,38.6,0,0,0-34.4,21.2H40.9A16.9,16.9,0,0,1,24,144.5,46,46,0,0,1,69.9,98.6H116a12,12,0,0,0,10.4-6,117.3,117.3,0,0,1,94.8-58.8,47,47,0,0,0-2.3,14.6v113H132.7a38.8,38.8,0,0,0-34.5-21.2Zm230,21.2a38.1,38.1,0,0,0-12.8-14.5V73a114.3,114.3,0,0,1,14,19.6,12.3,12.3,0,0,0,10.5,6h.1a28.1,28.1,0,0,1,28,28v17.9a16.9,16.9,0,0,1-16.9,16.9Z" transform="translate(0 -0.2)" style="fill:#4d4d4d"/></g><path d="M285.2,208.4a18.1,18.1,0,0,0-6.1-13.5V55.9a12,12,0,1,0-24,0v139a18.1,18.1,0,1,0,30.1,13.5Z" transform="translate(0 -0.2)" style="fill:#1a94d3"/></g></g></svg>