<?xml version="1.0" encoding="utf-8"?>
<!-- Generator: Adobe Illustrator 23.0.6, SVG Export Plug-In . SVG Version: 6.00 Build 0)  -->
<svg version="1.1" id="Layer_1" xmlns="http://www.w3.org/2000/svg" xmlns:xlink="http://www.w3.org/1999/xlink" x="0px" y="0px"
	 viewBox="0 0 51 51" style="enable-background:new 0 0 51 51;" xml:space="preserve">
<style type="text/css">
	.st0{fill-rule:evenodd;clip-rule:evenodd;fill:#FFFFFF;}
	.st1{fill-rule:evenodd;clip-rule:evenodd;fill:none;stroke:#FFFFFF;stroke-width:2;stroke-miterlimit:10;}
</style>
<path class="st0" d="M28.6,44.9h-8.4V27.5h-4.6v-8h4.6V15c0-4.1,2.6-8.9,9.9-8.9c1.5,0,3,0.1,4.6,0.3l0.8,0.1l-0.2,7.5l-0.8,0
	c0,0-1.9,0-4,0c-1.6,0-1.8,0.4-1.8,1.9v3.7h6.9l-0.4,8h-6.5L28.6,44.9L28.6,44.9L28.6,44.9z M21.9,43.2h4.9V25.8h6.6l0.2-4.5h-6.8
	v-5.4c0-1.8,0.4-3.6,3.5-3.6c1.2,0,2.4,0,3.2,0L33.6,8c-0.8-0.1-2.1-0.2-3.6-0.2c-6,0-8.2,3.7-8.2,7.2v6.2h-4.6v4.5h4.6L21.9,43.2
	L21.9,43.2L21.9,43.2z"/>
<rect y="0" class="st1" width="51" height="51"/>
</svg>
