<?xml version="1.0" encoding="utf-8"?>
<!-- Generator: Adobe Illustrator 23.0.6, SVG Export Plug-In . SVG Version: 6.00 Build 0)  -->
<svg version="1.1" id="Layer_1" xmlns="http://www.w3.org/2000/svg" xmlns:xlink="http://www.w3.org/1999/xlink" x="0px" y="0px"
	 viewBox="0 0 51 51" style="enable-background:new 0 0 51 51;" xml:space="preserve">
<style type="text/css">
	.st0{fill-rule:evenodd;clip-rule:evenodd;fill:none;stroke:#FFFFFF;stroke-width:2;stroke-miterlimit:10;}
	.st1{fill-rule:evenodd;clip-rule:evenodd;fill:#FFFFFF;}
</style>
<rect y="0" class="st0" width="51" height="51"/>
<path class="st1" d="M30.2,22.4H18V28h6.2c-0.8,2.3-3,3.8-5.4,3.7c-3.4,0.1-6.3-2.5-6.4-5.9c-0.1-3.4,2.5-6.3,5.9-6.4
	c0.1,0,0.3,0,0.4,0c1.5-0.1,2.9,0.5,4,1.5l0.4,0.4l4.2-4.1l-0.5-0.4c-2.2-2-5.2-3.1-8.2-2.9c-6.5-0.2-11.9,4.9-12.1,11.4
	C6.5,31.6,11.6,37,18,37.2c0.2,0,0.5,0,0.7,0c6.2,0,10.7-3.6,11.5-9.4c0.1-0.8,0.2-1.6,0.2-2.3c0-0.9-0.1-1.7-0.2-2.6L30.2,22.4z
	 M29,27.7c-0.8,5.2-4.7,8.3-10.3,8.3c-5.8,0.2-10.6-4.4-10.8-10.2C7.7,20,12.3,15.2,18.1,15c0.2,0,0.4,0,0.6,0
	c2.5-0.1,4.9,0.6,6.8,2.1l-2.4,2.4c-1.3-1-2.8-1.5-4.4-1.4c-4.1-0.1-7.5,3.1-7.6,7.2c-0.1,4.1,3.1,7.5,7.2,7.6c0.1,0,0.3,0,0.4,0
	c3.3,0.1,6.2-2.2,6.8-5.4l0.2-0.7h-6.5v-3.1h9.9c0.1,0.6,0.1,1.2,0.1,1.9C29.2,26.2,29.2,27,29,27.7z M40.6,22.4v-3.7h-4.4v3.7h-3.8
	v4.3h3.8v3.7h4.4v-3.7h3.8v-4.3H40.6z M43.1,25.5h-3.8v3.7h-1.9v-3.7h-3.8v-1.9h3.8v-3.7h1.9v3.7h3.8V25.5z"/>
</svg>
