<svg xmlns="http://www.w3.org/2000/svg" viewBox="0 0 375.3 359.9"><title>Asset 1</title><g id="Layer_2" data-name="Layer 2"><g id="Layer_3" data-name="Layer 3"><path d="M251.2,332c-1.7-1.1-7.2-2.5-8.7-3.6l-30.7,20.2-25-25,21.5-34.3a25.2,25.2,0,0,1-1.4-3.3l-39.6-7,.2-38.6,28.9-5-14.4-14c-12,9.8-26.7,15.6-42.4,15.6h-.1a66.6,66.6,0,0,1-40.4-14h0L84.5,237H55.8c-13.2,0-23.5,4.5-31.6,13.9C.7,278,4.6,336.6,6.5,354.6h249ZM79.9,164.5A72.6,72.6,0,0,0,98.7,206a54.6,54.6,0,0,0,6.6,6.2,64.5,64.5,0,0,0,9.5,6.2,53.7,53.7,0,0,0,24.7,6.1,53.1,53.1,0,0,0,24.7-6.1,59.6,59.6,0,0,0,9.5-6.2,55.9,55.9,0,0,0,6.7-6.2c10-10.6,16.8-25.1,18.7-41.3h.6c10.4,0,18.8-9.8,18.8-21.7a23.1,23.1,0,0,0-7.8-17.6H71.6a22.8,22.8,0,0,0-7.9,17.6C63.7,154.1,70.8,163,79.9,164.5ZM113.1,29.8C92.3,40.4,75.9,61.6,69.7,82.2l-1.4,4.4H56.9v25H225.3v-25H214.1l-1.4-4.4c-6.2-20.6-22.6-41.6-43.4-52.2V84.4a16.7,16.7,0,0,1-1.6,6.2,15.7,15.7,0,0,1-13.8,8.6H128.7a15.7,15.7,0,0,1-15.4-13.4,8.2,8.2,0,0,1-.2-2.2V29.8Zm15.6,62.8h25a9.2,9.2,0,0,0,8.2-5,8.6,8.6,0,0,0,1.2-4.4V17.4a15.6,15.6,0,0,0-.8-4.4,12.6,12.6,0,0,0-11.6-8h-22a9.1,9.1,0,0,0-9.2,8.2c0,.4-.2.8-.2,1.2V83.2a10.1,10.1,0,0,0,1.6,5.4A9.8,9.8,0,0,0,128.7,92.6Z" style="fill:none;stroke:#4d4d4c;stroke-miterlimit:10;stroke-width:10px"/><path d="M370.3,268.1V251.5l-34.6-6.3a62.9,62.9,0,0,0-7.5-17.9l20.2-28.8-11.8-11.8-28.9,20.1a60.5,60.5,0,0,0-18-7.4l-6.1-34.6H266.9l-6.2,34.6a62.3,62.3,0,0,0-18,7.5l-28.8-20.2-11.8,11.8,20.1,28.9a63.3,63.3,0,0,0-7.4,18l-34.6,6.1v16.7l34.7,6.2a62.1,62.1,0,0,0,7.4,18l-20.2,28.8L213.9,333l28.9-20.1a63.3,63.3,0,0,0,18,7.4l6.1,34.6h16.7l6.2-34.7a62.1,62.1,0,0,0,18-7.4l28.8,20.1,11.8-11.8-20.1-28.9a62.7,62.7,0,0,0,7.4-17.9Zm-95.1,17.4a25.7,25.7,0,1,1,25.7-25.7A25.7,25.7,0,0,1,275.2,285.5Z" style="fill:none;stroke:#00a9d2;stroke-miterlimit:10;stroke-width:10px"/></g></g></svg>