<?xml version="1.0" encoding="utf-8"?>
<!-- Generator: Adobe Illustrator 23.0.6, SVG Export Plug-In . SVG Version: 6.00 Build 0)  -->
<svg version="1.1" id="Layer_1" xmlns="http://www.w3.org/2000/svg" xmlns:xlink="http://www.w3.org/1999/xlink" x="0px" y="0px"
	 viewBox="0 0 51 51" style="enable-background:new 0 0 51 51;" xml:space="preserve">
<style type="text/css">
	.st0{fill-rule:evenodd;clip-rule:evenodd;fill:none;stroke:#FFFFFF;stroke-width:2;stroke-miterlimit:10;}
	.st1{fill-rule:evenodd;clip-rule:evenodd;fill:#FFFFFF;}
</style>
<rect y="0" class="st0" width="51" height="51"/>
<path class="st1" d="M17.4,42H9.4V19.5h8.1V42z M10.8,40.5H16V20.9h-5.1V40.5z M13.4,18.1c-2.5,0-4.5-2.1-4.5-4.6
	C8.9,11,11,9,13.5,9c2.5,0,4.5,2,4.5,4.5C17.9,16,15.9,18.1,13.4,18.1z M13.4,10.5c-1.7,0-3.1,1.4-3,3.1c0,1.7,1.4,3.1,3.1,3
	c1.7,0,3-1.4,3-3.1C16.5,11.8,15.1,10.5,13.4,10.5z M42.1,42H34V31c0-3.3-0.4-4.9-2.7-4.9c-2.3,0-3.2,1.3-3.2,4.7V42h-8.1V19.5h7.8
	v1.6c1.5-1.4,3.5-2.2,5.6-2.1c7.6,0,8.6,5.4,8.6,10.8V42L42.1,42z M35.5,40.5h5.1V29.7c0-5.7-1.2-9.3-7.2-9.3
	c-2.3-0.1-4.4,1.1-5.6,3l-0.2,0.4h-1.3v-2.9h-4.8v19.6h5.1v-9.7c0-1.7,0-6.1,4.7-6.1c4.2,0,4.2,4.1,4.2,6.3V40.5L35.5,40.5z"/>
</svg>
