<svg id="Isolation_Mode" data-name="Isolation Mode" xmlns="http://www.w3.org/2000/svg" viewBox="0 0 411 62.6"><title>Vector Smart Object6</title><polygon points="68.9 62.6 43.5 62.6 21.1 33.6 21.1 62.6 0 62.6 0 1 21.1 1 21.1 28.7 45.7 1 67.9 1 43.2 29.5 68.9 62.6" style="fill:#fff;fill-rule:evenodd"/><polygon points="123.4 62.6 78.3 62.6 78.3 1 99.5 1 99.5 47.5 123.4 47.5 123.4 62.6" style="fill:#fff;fill-rule:evenodd"/><rect x="132.5" y="1" width="21.3" height="61.57" style="fill:#fff"/><polygon points="239.2 62.6 218.3 62.6 218.3 29 201.8 51.5 185.7 29.2 185.1 29.2 185.9 62.6 164.6 62.6 164.6 1 183.8 1 201.8 25.7 220.2 1 239.2 1 239.2 62.6" style="fill:#fff;fill-rule:evenodd"/><path d="M561.7,339H540.6a34.6,34.6,0,0,0-1.4-3.9c-.9-2.2-1.7-4.5-2.6-6.8H509.1a60,60,0,0,0-2.8,6.8A32.1,32.1,0,0,0,505,339H484l27.7-61.6h22.2L561.7,339Zm-29.9-21.6h0v-.8L523,293.4l-9.3,24Z" transform="translate(-236.4 -276.4)" style="fill:#fff;fill-rule:evenodd"/><polygon points="411 61.6 384.5 61.6 334.1 0.1 360.4 0.1 411 61.6" style="fill:#fff;fill-rule:evenodd"/><path d="M620,277.2a28.6,28.6,0,0,0-11.3,9.8l9.9,12c2.9-6.7,5.4-12,9.2-16.3l-7.8-5.5Zm-23.8,34.3h0c-6.1,11.9-12.1,20.7-25.8,27.3h0l11.5-1.2s13.2-1.7,23.9-14.5Z" transform="translate(-236.4 -276.4)" style="fill:#fff;fill-rule:evenodd"/><path d="M608.7,287c.6-1.1,8.7-10.2,13.7-10.6a15.5,15.5,0,0,1,8.9,1.8c3.2,1.4,10.6,1.6,11.9,3.2a9.1,9.1,0,0,0-3.5-.1c-1.2.4-7.5,1.7-9.5,6.3,0,0-6.2,2.2-7.9,3.5s-.4-2.8-1.4-5.9-4-1.5-5.6,0Z" transform="translate(-236.4 -276.4)" style="fill:#fff;fill-rule:evenodd"/><path d="M640.5,281.2a15.3,15.3,0,0,0-4.7-.3,51.7,51.7,0,0,0-5.7,1.1s5-.6,6.2-.6l2.3.3Z" transform="translate(-236.4 -276.4)" style="fill:#fff;fill-rule:evenodd"/><path d="M604.7,333.1s3.9,0,4.5.4,2.7,1.2,3,3.3c0,0-.8-.8-1.2-.8s.7.6.5,1.2-1.6-1.5-2.8-1.1-4.2-.3-5.1.7S604.2,333.3,604.7,333.1Z" transform="translate(-236.4 -276.4)" style="fill:#fff;fill-rule:evenodd"/></svg>