<svg xmlns="http://www.w3.org/2000/svg" xmlns:xlink="http://www.w3.org/1999/xlink" width="96.97" height="73.66" viewBox="0 0 96.97 73.66">
  <path d="M1163.16,3046h-73.28a11.854,11.854,0,0,0-11.86,11.83v49.99a11.847,11.847,0,0,0,11.86,11.83h73.26a11.854,11.854,0,0,0,11.86-11.83v-49.97A11.847,11.847,0,0,0,1163.16,3046Zm6.44,61.82a6.438,6.438,0,0,1-6.44,6.42h-73.28a6.44,6.44,0,0,1-6.45-6.42v-49.97a6.44,6.44,0,0,1,6.45-6.42h73.26a6.438,6.438,0,0,1,6.44,6.42v49.97h0.02Zm-30.42-25.62,23.72-21.22a2.712,2.712,0,1,0-3.63-4.03l-32.71,29.3-6.38-5.69a0.106,0.106,0,0,1-.04-0.06,3.344,3.344,0,0,0-.45-0.38l-25.96-23.19a2.713,2.713,0,1,0-3.61,4.05l24,21.41-23.9,22.32a2.7,2.7,0,0,0-.12,3.83,2.762,2.762,0,0,0,1.98.86,2.73,2.73,0,0,0,1.85-.72l24.26-22.65,6.58,5.87a2.723,2.723,0,0,0,1.81.68,2.683,2.683,0,0,0,1.8-.7l6.77-6.05,24.12,22.87a2.719,2.719,0,0,0,3.83-.1,2.723,2.723,0,0,0-.1-3.83Z" transform="translate(-1078.03 -3046)"/>
</svg>
