<svg xmlns="http://www.w3.org/2000/svg" xmlns:xlink="http://www.w3.org/1999/xlink" width="28" height="28" viewBox="0 0 28 28">

  <path id="Shape_1_copy" data-name="Shape 1 copy" d="M1360.14,28.342a2.742,2.742,0,0,0-2-.916,2.863,2.863,0,0,0-2.02.91l-1.87,1.861-0.46-.236c-0.21-.106-0.41-0.207-0.58-0.313a20.044,20.044,0,0,1-4.87-4.432,11.942,11.942,0,0,1-1.6-2.518c0.48-.443.93-0.9,1.37-1.347,0.17-.166.33-0.337,0.5-0.5a2.713,2.713,0,0,0,0-4.089l-1.62-1.613c-0.18-.183-0.37-0.373-0.55-0.562-0.35-.366-0.73-0.745-1.11-1.1a2.811,2.811,0,0,0-1.98-.869,2.9,2.9,0,0,0-2.02.869c0,0.005,0,.005-0.01.012l-2.01,2.027a4.343,4.343,0,0,0-1.29,2.748,10.385,10.385,0,0,0,.76,4.385,25.4,25.4,0,0,0,4.53,7.541,27.771,27.771,0,0,0,9.28,7.251,14.411,14.411,0,0,0,5.2,1.537c0.13,0.006.26,0.012,0.38,0.012a4.463,4.463,0,0,0,3.41-1.466c0.01-.012.02-0.018,0.03-0.029a12.6,12.6,0,0,1,1.03-1.07c0.26-.242.52-0.5,0.77-0.762a2.937,2.937,0,0,0,.9-2.045,2.84,2.84,0,0,0-.92-2.027Zm2.12,6.223h0c-0.23.248-.46,0.473-0.72,0.721-0.38.367-.77,0.751-1.14,1.182a2.858,2.858,0,0,1-2.23.94c-0.09,0-.18,0-0.27-0.006a12.886,12.886,0,0,1-4.62-1.383,26.225,26.225,0,0,1-8.73-6.832,24.12,24.12,0,0,1-4.27-7.086,8.407,8.407,0,0,1-.66-3.7,2.724,2.724,0,0,1,.82-1.755l2.02-2.015a1.351,1.351,0,0,1,.9-0.42,1.264,1.264,0,0,1,.86.414c0.01,0.006.01,0.012,0.02,0.018,0.36,0.337.7,0.685,1.06,1.058,0.19,0.189.38,0.378,0.57,0.573l1.61,1.613a1.124,1.124,0,0,1,0,1.832c-0.17.171-.33,0.343-0.51,0.508-0.49.508-.97,0.981-1.48,1.442a0.084,0.084,0,0,0-.03.029,1.2,1.2,0,0,0-.31,1.342c0.01,0.018.01,0.035,0.02,0.053a12.918,12.918,0,0,0,1.91,3.115l0.01,0.006a21.622,21.622,0,0,0,5.25,4.775c0.25,0.154.49,0.278,0.73,0.4,0.21,0.106.41,0.207,0.59,0.313a0.454,0.454,0,0,0,.07.041,1.2,1.2,0,0,0,1.48-.26l2.03-2.021a1.335,1.335,0,0,1,.89-0.443,1.188,1.188,0,0,1,.85.432l0.02,0.012,3.26,3.257A1.163,1.163,0,0,1,1362.26,34.565Zm-9.12-16.908a7.486,7.486,0,0,1,4.08,2.116,7.586,7.586,0,0,1,2.12,4.078,0.789,0.789,0,0,0,.79.662,0.985,0.985,0,0,0,.13-0.012,0.8,0.8,0,0,0,.66-0.922,9.192,9.192,0,0,0-7.51-7.494,0.805,0.805,0,0,0-.92.65A0.789,0.789,0,0,0,1353.14,17.657Zm12.85,5.691a15.153,15.153,0,0,0-12.36-12.339,0.8,0.8,0,0,0-.26,1.572,13.533,13.533,0,0,1,11.05,11.028,0.789,0.789,0,0,0,.79.662,1.117,1.117,0,0,0,.13-0.012A0.782,0.782,0,0,0,1365.99,23.348Z" transform="translate(-1338 -11)"/>
</svg>
