<svg xmlns="http://www.w3.org/2000/svg" xmlns:xlink="http://www.w3.org/1999/xlink" viewBox="0 0 474.3 425.7"><defs><clipPath id="clip-path"><polygon points="0 191.9 339.7 191.9 391.9 191.9 391.9 426.7 0 426.7 0 191.9" style="fill:none"/></clipPath></defs><title>Asset 1</title><g id="Layer_2" data-name="Layer 2"><g id="Layer_4" data-name="Layer 4"><g style="clip-path:url(#clip-path)"><path d="M328.9,192.3H63.1A63.2,63.2,0,0,0,0,255.5v72a63.2,63.2,0,0,0,63.1,63.1H76.6a11.9,11.9,0,0,0,12-12V361.1h30.5v52.6a12,12,0,0,0,24,0V361.1H184v52.6a12,12,0,1,0,24,0V361.1h40.9v52.6a12,12,0,0,0,24,0V361.1h30.5v17.5a11.9,11.9,0,0,0,12,12h13.5A63.2,63.2,0,0,0,392,327.5v-72a63.2,63.2,0,0,0-63.1-63.2Zm-265.8,24H328.9a39.2,39.2,0,0,1,37.8,29.2H25.3a39.2,39.2,0,0,1,37.8-29.2ZM328.9,366.6h-1.5V349.1a12,12,0,0,0-12-12H76.6a12,12,0,0,0-12,12v17.5H63.1A39.2,39.2,0,0,1,24,327.5v-58H368v58a39.2,39.2,0,0,1-39.1,39.1Z" style="fill:#1a94d3"/></g><path d="M340.5,303.4a5.2,5.2,0,0,0-.2-1.1,7.6,7.6,0,0,1-.4-1.1,5.4,5.4,0,0,1-.5-1.1l-.6-1-.7-.9-.8-.9-.9-.8-1-.7-1-.6-1-.5-1.1-.4-1.2-.3-1.1-.2h-2.4l-1.2.2-1.1.3-1.1.4-1.1.5-1,.6-.9.7-.9.8-.8.9-.7.9-.6,1a5.4,5.4,0,0,0-.5,1.1c-.1.3-.3.7-.4,1.1l-.3,1.1c-.1.4-.1.8-.2,1.2V307c.1.3.1.7.2,1.1l.3,1.2c.1.3.3.7.4,1.1a4.7,4.7,0,0,0,.5,1l.6,1a8.6,8.6,0,0,0,.7,1l.8.9.9.8.9.7,1,.6,1.1.5,1.1.4,1.1.2,1.2.2H330l1.1-.2,1.2-.2,1.1-.4,1-.5,1-.6,1-.7.9-.8.8-.9.7-1,.6-1,.5-1a3.6,3.6,0,0,1,.4-1.1,5,5,0,0,0,.2-1.2,5.2,5.2,0,0,0,.2-1.1,7.3,7.3,0,0,0,0-2.4,5,5,0,0,0-.2-1.2Z" style="fill:#1a94d3"/><path d="M297.3,303.4l-.3-1.1c-.1-.4-.3-.8-.4-1.1l-.5-1.1-.6-1-.7-.9-.8-.9-.9-.8-.9-.7-1-.6-1.1-.5-1.1-.4-1.1-.3-1.2-.2h-2.4l-1.1.2-1.2.3-1.1.4-1,.5-1.1.6-.9.7-.9.8-.8.9-.7.9-.6,1a5.4,5.4,0,0,1-.5,1.1,7.6,7.6,0,0,1-.4,1.1,5.2,5.2,0,0,0-.2,1.1,5,5,0,0,0-.2,1.2,7.2,7.2,0,0,0,0,2.4,5.2,5.2,0,0,0,.2,1.1,5,5,0,0,0,.2,1.2,3.6,3.6,0,0,1,.4,1.1,4.7,4.7,0,0,1,.5,1l.6,1,.7,1,.8.9.9.8.9.7,1.1.6,1,.5,1.1.4,1.2.2,1.1.2h2.4l1.2-.2,1.1-.2,1.1-.4,1.1-.5,1-.6.9-.7.9-.8.8-.9a8.6,8.6,0,0,0,.7-1l.6-1a4.7,4.7,0,0,0,.5-1c.1-.4.3-.8.4-1.1l.3-1.2c.1-.4.1-.8.2-1.1v-2.4c-.1-.4-.1-.8-.2-1.2Z" style="fill:#1a94d3"/><path d="M184.7,171a36.4,36.4,0,0,1,30.6,10.3l.6.6,4.2,4.2h38l-4.8-4.8L227,155a11,11,0,0,1,15.6-15.6l41.9,41.9,4.8,4.8h38.1l-58.5-58.5a36.2,36.2,0,0,1-10.3-30.5A85.9,85.9,0,0,0,160.7.9a5.1,5.1,0,0,0-2.8,8.7l26,26a31.7,31.7,0,0,1,0,44.7l-16,16a31.8,31.8,0,0,1-44.8,0l-26-26a5,5,0,0,0-8.6,2.9A85.9,85.9,0,0,0,184.7,171Z" style="fill:#4d4d4d"/><path d="M463.2,322l-64.5-64.5v38l42.1,42.1a11,11,0,0,1,0,15.6,10.9,10.9,0,0,1-15.6,0l-26.6-26.6v38l11,11A37.9,37.9,0,0,0,463.2,322Z" style="fill:#4d4d4d"/></g></g></svg>