<?xml version="1.0" encoding="UTF-8"?><!DOCTYPE svg PUBLIC "-//W3C//DTD SVG 1.1//EN" "http://www.w3.org/Graphics/SVG/1.1/DTD/svg11.dtd"><svg xmlns="http://www.w3.org/2000/svg" xmlns:xlink="http://www.w3.org/1999/xlink"><defs><clipPath id="a" transform="translate(0 -.2)"><path fill="none" d="M0 0h391.9v272.88H0z"/></clipPath><clipPath id="a"><path fill="none" d="M97.3 92.2h177.4v111.32H97.3z"/></clipPath><clipPath id="a"><path fill="none" d="M0 191.9h391.9v234.8H0V191.9z"/></clipPath></defs><symbol id="svg-ac" viewBox="0 0 391.4 231.9"><g data-name="Layer 2"><g data-name="Layer 3"><path d="M175.4 138.2c-18.5-13.9-33.4-20.5-46.3-23.5a32 32 0 00-3.8-13.4c11.9-5.1 27.4-8.2 50.1-7.5C164.6 80 154.8 69.9 149 59.7c-16.1 9.3-27.9 18.9-36.7 28.7a28.8 28.8 0 00-13.4-3.6c1.5-12.8 6.5-27.6 18.5-47.1H78.3c-2.7 23.1-.9 39.2 3 51.8a30.8 30.8 0 00-10 10C61.1 92 50.7 81.6 40 66.8c-5.4 12-10.7 20-19.7 27 18.5 13.8 33.5 20.4 46.3 23.4a32.4 32.4 0 003.8 13.5c-11.9 5-27.4 8.1-50.1 7.5 10.9 13.8 20.6 23.9 26.4 34 16.1-9.3 27.9-18.9 36.7-28.6a30 30 0 0013.4 3.5c-1.5 12.8-6.5 27.7-18.5 47.1h39.1c2.8-23.1 1-39.2-2.9-51.8a30.5 30.5 0 009.9-10c10.2 7.5 20.6 18 31.3 32.7 5.4-12 10.7-20 19.7-26.9zm-77.6-12.4a9.8 9.8 0 119.8-9.8 9.8 9.8 0 01-9.8 9.8zM321 101.3c11.9-5.1 27.4-8.2 50.1-7.5-10.9-13.8-20.6-23.9-26.4-34.1-16.1 9.3-27.9 18.9-36.7 28.7a29.1 29.1 0 00-13.4-3.6c1.5-12.8 6.5-27.6 18.5-47.1h-39.2c-2.7 23.1-.9 39.2 3 51.8a31.5 31.5 0 00-9.9 10c-10.3-7.5-20.6-17.9-31.4-32.7-5.3 12-10.6 20-19.6 27 18.5 13.8 33.4 20.4 46.3 23.4a30.9 30.9 0 003.7 13.5c-11.8 5-27.4 8.1-50 7.5 10.8 13.8 20.5 23.9 26.4 34 16-9.3 27.9-18.9 36.6-28.6a30.7 30.7 0 0013.4 3.5c-1.5 12.8-6.5 27.7-18.5 47.1h39.2c2.7-23.1.9-39.2-3-51.8a30.8 30.8 0 0010-10c10.2 7.5 20.6 18 31.3 32.7 5.4-12 10.7-20 19.7-26.9-18.6-13.9-33.5-20.5-46.4-23.5a30.1 30.1 0 00-3.7-13.4zm-27.5 24.5a9.8 9.8 0 119.8-9.8 9.7 9.7 0 01-9.8 9.8z" fill="#00a9d2"/><path d="M375.7 18.1H250S225.7 0 195.7 0s-54.4 18.1-54.4 18.1H15.7A15.7 15.7 0 000 33.8v164.4a15.6 15.6 0 0015.7 15.6h125.6s24.4 18.1 54.4 18.1 54.4-18.1 54.4-18.1h125.6a15.7 15.7 0 0015.7-15.6V33.8a15.8 15.8 0 00-15.7-15.7zm-180-3.6c24 0 43.5 15.9 43.5 15.9s-19.5 15.8-43.5 15.8-43.5-15.8-43.5-15.8 19.5-15.9 43.5-15.9zM13.7 26a5.9 5.9 0 11-5.9 5.8 5.9 5.9 0 015.9-5.8zm0 180a5.9 5.9 0 115.8-5.9 5.8 5.8 0 01-5.8 5.9zm84.1-3.9a86.1 86.1 0 1186.1-86.1 86 86 0 01-86.1 86.1zm97.9 15.3c-24 0-43.5-15.8-43.5-15.8s19.5-15.9 43.5-15.9 43.5 15.9 43.5 15.9-19.5 15.8-43.5 15.8zm97.8-15.3a86.1 86.1 0 1186.1-86.1 86.1 86.1 0 01-86.1 86.1zm84.2 3.9a5.9 5.9 0 115.9-5.9 5.9 5.9 0 01-5.9 5.9zm0-168.3a5.9 5.9 0 115.9-5.9 5.9 5.9 0 01-5.9 5.9z" fill="#4d4d4d"/></g></g></symbol><symbol id="svg-car" viewBox="0 0 392 271.7"><g data-name="Layer 2"><g data-name="Layer 3"><g clip-path="url(#a)"><path d="M346.9 74.9a143.6 143.6 0 00-32.4-35.7A48.2 48.2 0 00267.1 0 47.7 47.7 0 00238 9.8c-3.3-.3-6.7-.4-10.1-.4a141.3 141.3 0 00-118.7 65H69.9A70 70 0 000 144.3a40.9 40.9 0 0040.9 40.9h19.2a38.7 38.7 0 0076.2 0h71.6a63.9 63.9 0 00-4.3 23 63.6 63.6 0 0063.5 63.5h3a63.5 63.5 0 0059-77.3 40.9 40.9 0 002.8-9.2h19.2a40.9 40.9 0 0040.9-40.9v-17.9a52.1 52.1 0 00-45.1-51.5zM239.8 236.8a39.6 39.6 0 01-.5-56.7 11.8 11.8 0 003.6-8.5V48.2a24.3 24.3 0 0148.5 0v123.4a12.1 12.1 0 003.5 8.5 38.8 38.8 0 0111.7 29.3 39.5 39.5 0 01-66.8 27.4zm-126.9-58.1A14.7 14.7 0 1198.2 164a14.6 14.6 0 0114.7 14.7zM98.2 140a38.6 38.6 0 00-34.4 21.2H40.9A16.9 16.9 0 0124 144.3a46 46 0 0145.9-45.9H116a12 12 0 0010.4-6 117.3 117.3 0 0194.8-58.8 47 47 0 00-2.3 14.6v113h-86.2A38.8 38.8 0 0098.2 140zm230 21.2a38.1 38.1 0 00-12.8-14.5V72.8a114.3 114.3 0 0114 19.6 12.3 12.3 0 0010.5 6h.1a28.1 28.1 0 0128 28v17.9a16.9 16.9 0 01-16.9 16.9z" fill="#4d4d4d"/></g><path d="M285.2 208.2a18.1 18.1 0 00-6.1-13.5v-139a12 12 0 10-24 0v139a18.1 18.1 0 1030.1 13.5z" fill="#1a94d3"/></g></g></symbol><symbol id="svg-cart" viewBox="0 0 489.6 509.8"><g data-name="Layer 2"><g data-name="Layer 1"><path d="M467.1 85.6L344.3 6.1a37.7 37.7 0 00-52.2 11.1L178.4 192.7a37.8 37.8 0 0011.2 52.2l122.8 79.6a37.9 37.9 0 0052.3-11.2l113.6-175.5a37.8 37.8 0 00-11.2-52.2zM350 303.9a20.3 20.3 0 01-28.1 6l-122.8-79.6a20.3 20.3 0 01-6-28.1L306.7 26.7a20.3 20.3 0 0128.1-6l122.9 79.5a20.3 20.3 0 016 28.1z" fill="#4d4d4d"/><path d="M436.9 113.2l-9.4-6.1a8.7 8.7 0 00-12 2.6 8.6 8.6 0 002.6 12l9.3 6.1a8.7 8.7 0 109.5-14.6zM369.5 53.6a56.3 56.3 0 1016.6 77.8 56.4 56.4 0 00-16.6-77.8zm-63.3 26.1c1-1.4 2-2.8 3-4l13.6 8.8-5.4 8.3-13.6-8.8a36.2 36.2 0 012.4-4.3zm31.2 14.2l8.3 5.4-5.4 8.4-8.3-5.4zm17.6 23.3l5.4-8.4 13.5 8.8a36.2 36.2 0 01-2.4 4.3 24.6 24.6 0 01-3 4zm14.8-23l5.1-7.9a38.8 38.8 0 012.8 13zm-14.6-9.5l-8.3-5.4 8.7-13.5a37.5 37.5 0 014.4 2.4 37.9 37.9 0 014 3l-8.8 13.5zM337.3 62l-5.1 7.8-7.8-5a38.3 38.3 0 0112.9-2.8zm-29.4 45.4l-5.1 7.9a40.8 40.8 0 01-2.8-12.9zm5.8 23.1l8.8-13.6 8.4 5.4-8.8 13.6a27.6 27.6 0 01-4.4-2.5c-1.4-.9-2.7-1.9-4-2.9zm26.7 9.1l5.1-7.8 7.8 5.1a40.7 40.7 0 01-12.9 2.7z" fill="#4d4d4d"/><path d="M304.4 154a56.3 56.3 0 1016.7 77.8 56.3 56.3 0 00-16.7-77.8zm-63.2 26.1a29.8 29.8 0 013-4l13.5 8.8-5.4 8.3-13.5-8.8a46.3 46.3 0 012.4-4.3zm31.2 14.2l8.3 5.4-5.4 8.4-8.3-5.4zm17.5 23.3l5.4-8.4 13.6 8.8a36.2 36.2 0 01-2.4 4.3 24.6 24.6 0 01-3 4zm14.9-23l5.1-7.9a41.4 41.4 0 012.8 13zm-14.6-9.5l-8.4-5.4 8.8-13.5a37.5 37.5 0 014.4 2.4 37.9 37.9 0 014 3l-8.8 13.5zm-17.9-22.7l-5.1 7.8-7.8-5a38.3 38.3 0 0112.9-2.8zm-29.4 45.4l-5.1 7.9a38.3 38.3 0 01-2.8-12.9zm5.8 23.1l8.8-13.6 8.3 5.4-8.7 13.6a27.6 27.6 0 01-4.4-2.5c-1.4-.9-2.7-1.9-4-2.9zm26.7 9.1l5.1-7.8 7.8 5.1a38.1 38.1 0 01-12.9 2.7z" fill="#4d4d4d"/><path d="M180.6 353.2h246.5c14.1 0 21.6-15.1 25.5-28.7l37-173.1H118.1l37 173.1c2.9 13.8 11.4 28.7 25.5 28.7zM388.2 309l25.5-120.1a12.7 12.7 0 0124.9 5.3l-25.5 120.1a12.6 12.6 0 01-12.4 10.1 12.4 12.4 0 01-2.7-.3 12.7 12.7 0 01-9.8-15.1zm-64 1.7l8.5-120.1a12.7 12.7 0 1125.4 1.8l-8.5 120.1a12.8 12.8 0 01-12.7 11.9h-.9a12.8 12.8 0 01-11.8-13.7zm-64.7-131.9a12.8 12.8 0 0113.6 11.8l8.5 120.1a12.7 12.7 0 01-11.8 13.6h-.9a12.7 12.7 0 01-12.7-11.9l-8.5-120.1a12.7 12.7 0 0111.8-13.6zm-82.5.3a12.7 12.7 0 0115.1 9.8L217.6 309a12.7 12.7 0 01-9.8 15.1 12.4 12.4 0 01-2.7.3 12.8 12.8 0 01-12.5-10.1l-25.5-120.1a12.8 12.8 0 019.9-15.1zM196.7 422.7a43.6 43.6 0 1043.6 43.5 43.6 43.6 0 00-43.6-43.5zm0 59.9a16.4 16.4 0 1116.3-16.4 16.3 16.3 0 01-16.3 16.4zM403.6 422.7a43.6 43.6 0 1043.6 43.5 43.6 43.6 0 00-43.6-43.5zm0 59.9a16.4 16.4 0 1116.3-16.4 16.3 16.3 0 01-16.3 16.4z" fill="#1a94d3"/><path d="M469.6 404.9H139.9a25.3 25.3 0 01-24.7-19.6l-61.7-266H14.8a14.8 14.8 0 110-29.5h42.1a25.3 25.3 0 0124.7 19.6l61.6 266h326.4a14.8 14.8 0 110 29.5z" fill="#1a94d3"/></g></g></symbol><symbol id="svg-close" viewBox="0 0 24 24"><path d="M0 0h24v24H0z" fill="none"/><path d="M19 6.41L17.59 5 12 10.59 6.41 5 5 6.41 10.59 12 5 17.59 6.41 19 12 13.41 17.59 19 19 17.59 13.41 12z"/></symbol><symbol id="svg-f" viewBox="0 0 51 51"><path d="M28.6 44.9h-8.4V27.5h-4.6v-8h4.6V15c0-4.1 2.6-8.9 9.9-8.9 1.5 0 3 .1 4.6.3l.8.1-.2 7.5h-.8-4c-1.6 0-1.8.4-1.8 1.9v3.7h6.9l-.4 8h-6.5l-.1 17.3zm-6.7-1.7h4.9V25.8h6.6l.2-4.5h-6.8v-5.4c0-1.8.4-3.6 3.5-3.6h3.2l.1-4.3c-.8-.1-2.1-.2-3.6-.2-6 0-8.2 3.7-8.2 7.2v6.2h-4.6v4.5h4.6l.1 17.5z" fill-rule="evenodd" clip-rule="evenodd" fill="#fff"/><path clip-rule="evenodd" fill="none" stroke="#fff" stroke-width="2" stroke-miterlimit="10" d="M0 0h51v51H0z"/></symbol><symbol id="svg-g+" viewBox="0 0 51 51"><path clip-rule="evenodd" fill="none" stroke="#fff" stroke-width="2" stroke-miterlimit="10" d="M0 0h51v51H0z"/><path d="M30.2 22.4H18V28h6.2c-.8 2.3-3 3.8-5.4 3.7-3.4.1-6.3-2.5-6.4-5.9-.1-3.4 2.5-6.3 5.9-6.4h.4c1.5-.1 2.9.5 4 1.5l.4.4 4.2-4.1-.5-.4c-2.2-2-5.2-3.1-8.2-2.9-6.5-.2-11.9 4.9-12.1 11.4 0 6.3 5.1 11.7 11.5 11.9h.7c6.2 0 10.7-3.6 11.5-9.4.1-.8.2-1.6.2-2.3 0-.9-.1-1.7-.2-2.6v-.5zM29 27.7c-.8 5.2-4.7 8.3-10.3 8.3-5.8.2-10.6-4.4-10.8-10.2C7.7 20 12.3 15.2 18.1 15h.6c2.5-.1 4.9.6 6.8 2.1l-2.4 2.4c-1.3-1-2.8-1.5-4.4-1.4-4.1-.1-7.5 3.1-7.6 7.2-.1 4.1 3.1 7.5 7.2 7.6h.4c3.3.1 6.2-2.2 6.8-5.4l.2-.7h-6.5v-3.1h9.9c.1.6.1 1.2.1 1.9 0 .6 0 1.4-.2 2.1zm11.6-5.3v-3.7h-4.4v3.7h-3.8v4.3h3.8v3.7h4.4v-3.7h3.8v-4.3h-3.8zm2.5 3.1h-3.8v3.7h-1.9v-3.7h-3.8v-1.9h3.8v-3.7h1.9v3.7h3.8v1.9z" fill-rule="evenodd" clip-rule="evenodd" fill="#fff"/></symbol><symbol id="svg-gear" viewBox="0 0 375.3 359.9"><g data-name="Layer 2"><g data-name="Layer 3" fill="none" stroke-miterlimit="10" stroke-width="10"><path d="M251.2 332c-1.7-1.1-7.2-2.5-8.7-3.6l-30.7 20.2-25-25 21.5-34.3a25.2 25.2 0 01-1.4-3.3l-39.6-7 .2-38.6 28.9-5-14.4-14c-12 9.8-26.7 15.6-42.4 15.6h-.1a66.6 66.6 0 01-40.4-14h0l-14.6 14H55.8c-13.2 0-23.5 4.5-31.6 13.9C.7 278 4.6 336.6 6.5 354.6h249zM79.9 164.5A72.6 72.6 0 0098.7 206a54.6 54.6 0 006.6 6.2 64.5 64.5 0 009.5 6.2 53.7 53.7 0 0024.7 6.1 53.1 53.1 0 0024.7-6.1 59.6 59.6 0 009.5-6.2 55.9 55.9 0 006.7-6.2c10-10.6 16.8-25.1 18.7-41.3h.6c10.4 0 18.8-9.8 18.8-21.7a23.1 23.1 0 00-7.8-17.6H71.6a22.8 22.8 0 00-7.9 17.6c0 11.1 7.1 20 16.2 21.5zm33.2-134.7C92.3 40.4 75.9 61.6 69.7 82.2l-1.4 4.4H56.9v25h168.4v-25h-11.2l-1.4-4.4c-6.2-20.6-22.6-41.6-43.4-52.2v54.4a16.7 16.7 0 01-1.6 6.2 15.7 15.7 0 01-13.8 8.6h-25.2a15.7 15.7 0 01-15.4-13.4 8.2 8.2 0 01-.2-2.2V29.8zm15.6 62.8h25a9.2 9.2 0 008.2-5 8.6 8.6 0 001.2-4.4V17.4a15.6 15.6 0 00-.8-4.4 12.6 12.6 0 00-11.6-8h-22a9.1 9.1 0 00-9.2 8.2c0 .4-.2.8-.2 1.2v68.8a10.1 10.1 0 001.6 5.4 9.8 9.8 0 007.8 4z" stroke="#4d4d4c"/><path d="M370.3 268.1v-16.6l-34.6-6.3a62.9 62.9 0 00-7.5-17.9l20.2-28.8-11.8-11.8-28.9 20.1a60.5 60.5 0 00-18-7.4l-6.1-34.6h-16.7l-6.2 34.6a62.3 62.3 0 00-18 7.5l-28.8-20.2-11.8 11.8 20.1 28.9a63.3 63.3 0 00-7.4 18l-34.6 6.1v16.7l34.7 6.2a62.1 62.1 0 007.4 18l-20.2 28.8 11.8 11.8 28.9-20.1a63.3 63.3 0 0018 7.4l6.1 34.6h16.7l6.2-34.7a62.1 62.1 0 0018-7.4l28.8 20.1 11.8-11.8-20.1-28.9a62.7 62.7 0 007.4-17.9zm-95.1 17.4a25.7 25.7 0 1125.7-25.7 25.7 25.7 0 01-25.7 25.7z" stroke="#00a9d2"/></g></g></symbol><symbol id="svg-in" viewBox="0 0 51 51"><path clip-rule="evenodd" fill="none" stroke="#fff" stroke-width="2" stroke-miterlimit="10" d="M0 0h51v51H0z"/><path d="M17.4 42h-8V19.5h8.1V42zm-6.6-1.5H16V20.9h-5.1v19.6zm2.6-22.4c-2.5 0-4.5-2.1-4.5-4.6C8.9 11 11 9 13.5 9 16 9 18 11 18 13.5c-.1 2.5-2.1 4.6-4.6 4.6zm0-7.6c-1.7 0-3.1 1.4-3 3.1 0 1.7 1.4 3.1 3.1 3 1.7 0 3-1.4 3-3.1 0-1.7-1.4-3-3.1-3zM42.1 42H34V31c0-3.3-.4-4.9-2.7-4.9-2.3 0-3.2 1.3-3.2 4.7V42H20V19.5h7.8v1.6c1.5-1.4 3.5-2.2 5.6-2.1C41 19 42 24.4 42 29.8V42h.1zm-6.6-1.5h5.1V29.7c0-5.7-1.2-9.3-7.2-9.3-2.3-.1-4.4 1.1-5.6 3l-.2.4h-1.3v-2.9h-4.8v19.6h5.1v-9.7c0-1.7 0-6.1 4.7-6.1 4.2 0 4.2 4.1 4.2 6.3v9.5z" fill-rule="evenodd" clip-rule="evenodd" fill="#fff"/></symbol><symbol id="svg-klimax" viewBox="0 0 411 62.6"><path fill="#fff" fill-rule="evenodd" d="M68.9 62.6H43.5l-22.4-29v29H0V1h21.1v27.7L45.7 1h22.2L43.2 29.5l25.7 33.1zM123.4 62.6H78.3V1h21.2v46.5h23.9v15.1z"/><path fill="#fff" d="M132.5 1h21.3v61.57h-21.3z"/><path fill="#fff" fill-rule="evenodd" d="M239.2 62.6h-20.9V29l-16.5 22.5-16.1-22.3h-.6l.8 33.4h-21.3V1h19.2l18 24.7L220.2 1h19v61.6zM325.3 62.6h-21.1a34.6 34.6 0 00-1.4-3.9c-.9-2.2-1.7-4.5-2.6-6.8h-27.5a60 60 0 00-2.8 6.8 32.1 32.1 0 00-1.3 3.9h-21L275.3 1h22.2l27.8 61.6zM295.4 41v-.8L286.6 17l-9.3 24zM411 61.6h-26.5L334.1.1h26.3L411 61.6zM383.6.8a28.6 28.6 0 00-11.3 9.8l9.9 12c2.9-6.7 5.4-12 9.2-16.3L383.6.8zm-23.8 34.3C353.7 47 347.7 55.8 334 62.4l11.5-1.2s13.2-1.7 23.9-14.5z"/><path d="M372.3 10.6C372.9 9.5 381 .4 386 0a15.5 15.5 0 018.9 1.8c3.2 1.4 10.6 1.6 11.9 3.2a9.1 9.1 0 00-3.5-.1c-1.2.4-7.5 1.7-9.5 6.3 0 0-6.2 2.2-7.9 3.5s-.4-2.8-1.4-5.9-4-1.5-5.6 0z" fill="#fff" fill-rule="evenodd"/><path d="M404.1 4.8a15.3 15.3 0 00-4.7-.3 51.7 51.7 0 00-5.7 1.1s5-.6 6.2-.6l2.3.3zM368.3 56.7s3.9 0 4.5.4 2.7 1.2 3 3.3c0 0-.8-.8-1.2-.8s.7.6.5 1.2-1.6-1.5-2.8-1.1-4.2-.3-5.1.7.6-3.5 1.1-3.7z" fill="#fff" fill-rule="evenodd"/></symbol><symbol id="svg-mail" viewBox="0 0 96.97 73.66"><path d="M85.13 0H11.85A11.854 11.854 0 00-.01 11.83v49.99a11.847 11.847 0 0011.86 11.83h73.26a11.854 11.854 0 0011.86-11.83V11.85A11.847 11.847 0 0085.13 0zm6.44 61.82a6.438 6.438 0 01-6.44 6.42H11.85a6.44 6.44 0 01-6.45-6.42V11.85a6.44 6.44 0 016.45-6.42h73.26a6.438 6.438 0 016.44 6.42v49.97h.02zM61.15 36.2l23.72-21.22a2.712 2.712 0 10-3.63-4.03l-32.71 29.3-6.38-5.69a.106.106 0 01-.04-.06 3.344 3.344 0 00-.45-.38L15.7 10.93a2.713 2.713 0 10-3.61 4.05l24 21.41-23.9 22.32a2.7 2.7 0 00-.12 3.83 2.762 2.762 0 001.98.86 2.73 2.73 0 001.85-.72l24.26-22.65 6.58 5.87a2.723 2.723 0 001.81.68 2.683 2.683 0 001.8-.7l6.77-6.05L81.24 62.7a2.719 2.719 0 003.83-.1 2.723 2.723 0 00-.1-3.83z"/></symbol><symbol id="svg-map" viewBox="0 0 274.7 203.1"><g data-name="Layer 2"><path d="M83.1 164.1l-9.1-3.7v-45c1.2-.1 2.4-.3 3.6-.3a3.7 3.7 0 00-.1-7.4H74V9.9l55.6 29.3v38.4h7.4V39.2l55.5-29.3v67.7h7.4V3.7a3.8 3.8 0 00-1.8-3.2 3.8 3.8 0 00-3.6-.1l-61.2 32.4L72.1.4h-.2l-.5-.2h-2.2L2.5 22.4A3.7 3.7 0 000 25.9v159.2a3.8 3.8 0 001.5 3 3.6 3.6 0 002.2.7l1.2-.2 65.3-21.7 12.9 5.3zm-16.5-55.3l-4.6 1a3.7 3.7 0 00-2.7 4.5 3.8 3.8 0 003.6 2.8l1-.2 2.7-.5v43.8L7.4 180V28.6L66.6 8.8z" fill="#4d4d4d"/><path d="M38.8 47.5a19.5 19.5 0 00-3.9 38.6v8.2a4 4 0 003.9 4 3.9 3.9 0 003.9-4v-8.2a19.5 19.5 0 00-3.9-38.6zm0 31.2A11.7 11.7 0 1150.5 67a11.7 11.7 0 01-11.7 11.7zM28.2 124.4a3.9 3.9 0 005.6 0l5-5 5.1 5a3.7 3.7 0 002.7 1.2 4 4 0 002.8-6.7l-5.1-5 5.1-5.1a3.9 3.9 0 00-5.5-5.5l-5.1 5-5-5a4 4 0 00-5.6 0 3.9 3.9 0 000 5.5l5.1 5.1-5.1 5a3.9 3.9 0 000 5.5zM161.1 77.6a2.2 2.2 0 001.1.2 2.8 2.8 0 002.7-1.8 66.5 66.5 0 003.3-11.9 2.9 2.9 0 00-2.3-3.4 3 3 0 00-3.5 2.3 52.9 52.9 0 01-3 10.8 3 3 0 001.7 3.8zM98.4 98.4a2.9 2.9 0 00-.9-4.1 3.1 3.1 0 00-4.1.9 34.7 34.7 0 01-7.1 8.2 2.8 2.8 0 00-1 2.2 3.1 3.1 0 00.6 1.9 3 3 0 004.2.4 41.4 41.4 0 008.3-9.5zM147.4 95.5a2.5 2.5 0 001.4-.4 29.8 29.8 0 009.9-8.2 3 3 0 00-.4-4.1 3 3 0 00-4.2.5 26.4 26.4 0 01-8 6.6 3 3 0 001.3 5.6zM114.3 88.7l-2.1-.9-.6-.3c-3.2-.8-6.3-1.4-9.4-1.9a2.9 2.9 0 00-3.3 2.5 2.8 2.8 0 002.5 3.3 70.5 70.5 0 018.4 1.8l2.2.9a2.7 2.7 0 001.2.3 3 3 0 001.1-5.7zM166.6 54.8h.1a3 3 0 003-2.8c.2-2.8.2-5.8.2-8.9v-3a3 3 0 10-5.9.1c.1 1 .1 2 .1 3 0 2.9-.1 5.8-.3 8.5a2.9 2.9 0 002.8 3.1z" fill="#4d4d4d"/><g clip-path="url(#a)"><path d="M251.2 92.5H120.8c-13 0-23.5 9.7-23.5 21.7v63.3c0 12 10.5 21.8 23.5 21.8h11.7a.6.6 0 00-.1.4 3.5 3.5 0 003.6 3.4h14.7a3.5 3.5 0 003.6-3.4v-.4h63.4a.6.6 0 00-.1.4 3.6 3.6 0 003.7 3.4h14.6a3.5 3.5 0 003.6-3.4v-.4h11.7c12.9 0 23.5-9.8 23.5-21.8v-63.3c0-12-10.6-21.7-23.5-21.7zm12.6 85c0 6.5-5.6 11.8-12.6 11.8H120.8c-7 0-12.7-5.3-12.7-11.8v-63.3c0-6.4 5.7-11.7 12.7-11.7h130.4c7 0 12.6 5.3 12.6 11.7z" fill="#1a94d3"/></g><path d="M145 146.1a9.5 9.5 0 012.6-6.5l-11.4-2a4.7 4.7 0 00-5.6 4.4v8.2a4.7 4.7 0 005.6 4.3l11.4-2a9.4 9.4 0 01-2.6-6.4zM174.3 137.6l-11.4 2a9.1 9.1 0 010 12.9l11.4 2c3 .5 5.7-1.6 5.7-4.3V142a4.7 4.7 0 00-5.7-4.4zM148.4 137.7a3 3 0 00.4 1 10.2 10.2 0 016.5-2.2 10.4 10.4 0 016.5 2.2 1.7 1.7 0 00.3-1l2.3-11a4.5 4.5 0 00-4.7-5.3h-8.9a4.5 4.5 0 00-4.6 5.3zM162.1 154.4a1.6 1.6 0 00-.3-.9 11 11 0 01-6.5 2.1 10.8 10.8 0 01-6.5-2.1 3.6 3.6 0 00-.4.9l-2.2 11.1a4.5 4.5 0 004.6 5.2h8.9c3 0 5.3-2.5 4.7-5.2zM162.1 146.1a6.5 6.5 0 01-6.8 6.3c-3.8 0-6.9-2.8-6.9-6.3a6.7 6.7 0 016.9-6.4 6.6 6.6 0 016.8 6.4z" fill="#1a94d3"/><path d="M155.3 110.8c-21.1 0-38.2 15.8-38.2 35.3s17.1 35.3 38.2 35.3 38.1-15.9 38.1-35.3-17.1-35.3-38.1-35.3zm0 63.9c-17.1 0-30.9-12.9-30.9-28.6s13.8-28.6 30.9-28.6 30.9 12.8 30.9 28.6-13.9 28.6-30.9 28.6zM248.8 118.1h-13a3.4 3.4 0 100 6.7h13a3.4 3.4 0 100-6.7z" fill="#1a94d3"/></g></symbol><symbol id="svg-menu" viewBox="0 0 24 24"><path d="M0 0h24v24H0z" fill="none"/><path d="M3 18h18v-2H3v2zm0-5h18v-2H3v2zm0-7v2h18V6H3z"/></symbol><symbol id="svg-phone" viewBox="0 0 28 28"><path data-name="Shape 1 copy" d="M22.14 17.342a2.742 2.742 0 00-2-.916 2.863 2.863 0 00-2.02.91l-1.87 1.861-.46-.236a7.613 7.613 0 01-.58-.313 20.044 20.044 0 01-4.87-4.432 11.942 11.942 0 01-1.6-2.518c.48-.443.93-.9 1.37-1.347.17-.166.33-.337.5-.5a2.713 2.713 0 000-4.089L8.99 4.149c-.18-.183-.37-.373-.55-.562-.35-.366-.73-.745-1.11-1.1a2.811 2.811 0 00-1.98-.869 2.9 2.9 0 00-2.02.869c0 .005 0 .005-.01.012L1.31 4.526A4.343 4.343 0 00.02 7.274a10.385 10.385 0 00.76 4.385A25.4 25.4 0 005.31 19.2a27.771 27.771 0 009.28 7.251 14.411 14.411 0 005.2 1.537c.13.006.26.012.38.012a4.463 4.463 0 003.41-1.466c.01-.012.02-.018.03-.029a12.6 12.6 0 011.03-1.07c.26-.242.52-.5.77-.762a2.937 2.937 0 00.9-2.045 2.84 2.84 0 00-.92-2.027zm2.12 6.223c-.23.248-.46.473-.72.721-.38.367-.77.751-1.14 1.182a2.858 2.858 0 01-2.23.94c-.09 0-.18 0-.27-.006a12.886 12.886 0 01-4.62-1.383 26.225 26.225 0 01-8.73-6.832 24.12 24.12 0 01-4.27-7.086 8.407 8.407 0 01-.66-3.7 2.724 2.724 0 01.82-1.755l2.02-2.015a1.351 1.351 0 01.9-.42 1.264 1.264 0 01.86.414c.01.006.01.012.02.018.36.337.7.685 1.06 1.058.19.189.38.378.57.573l1.61 1.613a1.124 1.124 0 010 1.832c-.17.171-.33.343-.51.508-.49.508-.97.981-1.48 1.442a.084.084 0 00-.03.029 1.2 1.2 0 00-.31 1.342c.01.018.01.035.02.053a12.918 12.918 0 001.91 3.115l.01.006a21.622 21.622 0 005.25 4.775c.25.154.49.278.73.4.21.106.41.207.59.313a.454.454 0 00.07.041 1.2 1.2 0 001.48-.26l2.03-2.021a1.335 1.335 0 01.89-.443 1.188 1.188 0 01.85.432l.02.012 3.26 3.257a1.163 1.163 0 010 1.845zM15.14 6.657a7.486 7.486 0 014.08 2.116 7.586 7.586 0 012.12 4.078.789.789 0 00.79.662.985.985 0 00.13-.012.8.8 0 00.66-.922 9.192 9.192 0 00-7.51-7.494.805.805 0 00-.92.65.789.789 0 00.65.922zm12.85 5.691A15.153 15.153 0 0015.63.009a.8.8 0 00-.26 1.572 13.533 13.533 0 0111.05 11.028.789.789 0 00.79.662 1.117 1.117 0 00.13-.012.782.782 0 00.65-.911z"/></symbol><symbol id="svg-service" viewBox="0 0 474.3 425.7"><g data-name="Layer 2"><g data-name="Layer 4"><g clip-path="url(#a)"><path d="M328.9 192.3H63.1A63.2 63.2 0 000 255.5v72a63.2 63.2 0 0063.1 63.1h13.5a11.9 11.9 0 0012-12v-17.5h30.5v52.6a12 12 0 0024 0v-52.6H184v52.6a12 12 0 1024 0v-52.6h40.9v52.6a12 12 0 0024 0v-52.6h30.5v17.5a11.9 11.9 0 0012 12h13.5a63.2 63.2 0 0063.1-63.1v-72a63.2 63.2 0 00-63.1-63.2zm-265.8 24h265.8a39.2 39.2 0 0137.8 29.2H25.3a39.2 39.2 0 0137.8-29.2zm265.8 150.3h-1.5v-17.5a12 12 0 00-12-12H76.6a12 12 0 00-12 12v17.5h-1.5A39.2 39.2 0 0124 327.5v-58h344v58a39.2 39.2 0 01-39.1 39.1z" fill="#1a94d3"/></g><path d="M340.5 303.4a5.2 5.2 0 00-.2-1.1 7.6 7.6 0 01-.4-1.1 5.4 5.4 0 01-.5-1.1l-.6-1-.7-.9-.8-.9-.9-.8-1-.7-1-.6-1-.5-1.1-.4-1.2-.3-1.1-.2h-2.4l-1.2.2-1.1.3-1.1.4-1.1.5-1 .6-.9.7-.9.8-.8.9-.7.9-.6 1a5.4 5.4 0 00-.5 1.1c-.1.3-.3.7-.4 1.1l-.3 1.1c-.1.4-.1.8-.2 1.2v2.4c.1.3.1.7.2 1.1l.3 1.2c.1.3.3.7.4 1.1a4.7 4.7 0 00.5 1l.6 1a8.6 8.6 0 00.7 1l.8.9.9.8.9.7 1 .6 1.1.5 1.1.4 1.1.2 1.2.2h2.4l1.1-.2 1.2-.2 1.1-.4 1-.5 1-.6 1-.7.9-.8.8-.9.7-1 .6-1 .5-1a3.6 3.6 0 01.4-1.1 5 5 0 00.2-1.2 5.2 5.2 0 00.2-1.1 7.3 7.3 0 000-2.4 5 5 0 00-.2-1.2zM297.3 303.4l-.3-1.1c-.1-.4-.3-.8-.4-1.1l-.5-1.1-.6-1-.7-.9-.8-.9-.9-.8-.9-.7-1-.6-1.1-.5-1.1-.4-1.1-.3-1.2-.2h-2.4l-1.1.2-1.2.3-1.1.4-1 .5-1.1.6-.9.7-.9.8-.8.9-.7.9-.6 1a5.4 5.4 0 01-.5 1.1 7.6 7.6 0 01-.4 1.1 5.2 5.2 0 00-.2 1.1 5 5 0 00-.2 1.2 7.2 7.2 0 000 2.4 5.2 5.2 0 00.2 1.1 5 5 0 00.2 1.2 3.6 3.6 0 01.4 1.1 4.7 4.7 0 01.5 1l.6 1 .7 1 .8.9.9.8.9.7 1.1.6 1 .5 1.1.4 1.2.2 1.1.2h2.4l1.2-.2 1.1-.2 1.1-.4 1.1-.5 1-.6.9-.7.9-.8.8-.9a8.6 8.6 0 00.7-1l.6-1a4.7 4.7 0 00.5-1c.1-.4.3-.8.4-1.1l.3-1.2c.1-.4.1-.8.2-1.1v-2.4c-.1-.4-.1-.8-.2-1.2z" fill="#1a94d3"/><path d="M184.7 171a36.4 36.4 0 0130.6 10.3l.6.6 4.2 4.2h38l-4.8-4.8L227 155a11 11 0 0115.6-15.6l41.9 41.9 4.8 4.8h38.1l-58.5-58.5a36.2 36.2 0 01-10.3-30.5A85.9 85.9 0 00160.7.9a5.1 5.1 0 00-2.8 8.7l26 26a31.7 31.7 0 010 44.7l-16 16a31.8 31.8 0 01-44.8 0l-26-26a5 5 0 00-8.6 2.9 85.9 85.9 0 0096.2 97.8zM463.2 322l-64.5-64.5v38l42.1 42.1a11 11 0 010 15.6 10.9 10.9 0 01-15.6 0l-26.6-26.6v38l11 11a37.9 37.9 0 0053.6-53.6z" fill="#4d4d4d"/></g></g></symbol></svg>