<?xml version="1.0" encoding="utf-8"?>
<!-- Generator: Adobe Illustrator 23.0.6, SVG Export Plug-In . SVG Version: 6.00 Build 0)  -->
<svg version="1.1" id="Isolation_Mode" xmlns="http://www.w3.org/2000/svg" xmlns:xlink="http://www.w3.org/1999/xlink" x="0px"
	 y="0px" viewBox="0 0 411.1 62.7" style="enable-background:new 0 0 411.1 62.7;" xml:space="preserve">
<style type="text/css">
	.st0{fill-rule:evenodd;clip-rule:evenodd;fill:#0094D3;}
	.st1{fill-rule:evenodd;clip-rule:evenodd;}
	.st2{fill-rule:evenodd;clip-rule:evenodd;fill:#FFFFFF;stroke:#000000;stroke-width:0.5669;stroke-miterlimit:22.9256;}
	.st3{fill-rule:evenodd;clip-rule:evenodd;fill:#010005;}
</style>
<g>
	<polygon class="st0" points="68.9,62.7 43.5,62.7 21.1,33.7 21.1,62.7 0,62.7 0,1.1 21.1,1.1 21.1,28.8 45.8,1.1 67.9,1.1 
		43.2,29.6 	"/>
	<polygon class="st0" points="123.4,62.7 78.3,62.7 78.3,1.1 99.6,1.1 99.6,47.6 123.4,47.6 	"/>
	<rect x="132.5" y="1.1" class="st0" width="21.3" height="61.6"/>
	<polygon class="st0" points="239.2,62.7 218.4,62.7 218.4,29.1 201.8,51.6 185.7,29.3 185.1,29.3 185.9,62.7 164.6,62.7 164.6,1.1 
		183.8,1.1 201.8,25.7 220.2,1.1 239.2,1.1 	"/>
	<path class="st0" d="M325.3,62.7h-21.1c-0.1-0.3-0.5-1.6-1.4-3.8c-0.9-2.2-1.7-4.5-2.6-6.8h-27.5c-0.5,0.9-1.4,3.1-2.8,6.8
		c-0.8,2.1-1.2,3.4-1.3,3.9h-21l27.7-61.6h22.3L325.3,62.7L325.3,62.7z M295.4,41.1L295.4,41.1v-0.8l-8.8-23.2l-9.3,24H295.4z"/>
	<g>
		<polygon class="st0" points="411.1,61.7 384.5,61.7 334.2,0.1 360.4,0.1 		"/>
		<path class="st1" d="M383.6,0.9c-4.4,2.2-8.4,5.3-11.3,9.9l9.8,12c2.9-6.7,5.4-12,9.3-16.3L383.6,0.9L383.6,0.9z M359.8,35.2
			L359.8,35.2c-6.1,11.9-12.1,20.8-25.9,27.3l0,0l11.5-1.1c0,0,13.2-1.8,23.9-14.5L359.8,35.2z"/>
	</g>
	<g>
		<path class="st1" d="M372.3,10.7c0.5-1.1,8.6-10.2,13.7-10.6c5.1-0.4,7.7,1.2,8.8,1.7c3.2,1.4,10.7,1.6,12,3.3
			c0,0-2.4-0.5-3.6-0.1c-1.2,0.4-7.4,1.7-9.5,6.3c0,0-6.2,2.2-7.9,3.5s-0.4-2.8-1.3-5.9c-1-3.1-4-1.4-5.6,0L372.3,10.7z"/>
		<path class="st1" d="M404.1,4.9c0,0-2.6-0.5-4.7-0.3c-2.1,0.2-5.7,1.2-5.7,1.2s5-0.7,6.2-0.6s2.3,0.3,2.3,0.3L404.1,4.9z"/>
	</g>
	<path class="st2" d="M389.6,2.5L389.6,2.5c-0.1,0.1-0.3,0.1-0.5,0.3c-0.3,0.3-0.3,0.7,0,1s0.7,0.3,1,0l0,0c0,0.4-0.2,0.8-0.5,1.2
		c-0.7,0.7-1.8,0.7-2.4,0c-0.7-0.7-0.7-1.8,0-2.4C387.8,1.8,388.9,1.8,389.6,2.5z"/>
	<path class="st3" d="M368.3,56.8c0,0,3.9-0.1,4.5,0.4s2.7,1.1,3,3.2c0,0-0.9-0.7-1.2-0.8c0,0,0.7,0.7,0.5,1.2c0,0-1.6-1.5-2.8-1.1
		s-4.2-0.4-5.1,0.7C367.2,60.5,367.8,57,368.3,56.8z"/>
</g>
</svg>
